<?xml version="1.0" standalone="no"?>
<!DOCTYPE svg PUBLIC "-//W3C//DTD SVG 20010904//EN"
 "http://www.w3.org/TR/2001/REC-SVG-20010904/DTD/svg10.dtd">
<svg version="1.0" xmlns="http://www.w3.org/2000/svg"
 width="1270.000000pt" height="400.000000pt" viewBox="0 0 1270.000000 400.000000"
 preserveAspectRatio="xMidYMid meet">
<metadata>
Created by potrace 1.16, written by Peter Selinger 2001-2019
</metadata>
<g transform="translate(0.000000,400.000000) scale(0.100000,-0.100000)"
fill="#000000" stroke="none">
<path d="M2 3093 c0 -500 3 -892 5 -873 21 203 67 387 141 562 204 482 611
859 1107 1027 455 153 949 126 1378 -77 534 -253 910 -736 1029 -1323 20 -100
23 -143 23 -349 0 -206 -3 -249 -23 -350 -86 -425 -315 -807 -647 -1080 -551
-453 -1327 -543 -1970 -231 -576 281 -962 826 -1034 1461 -5 46 -9 -305 -10
-892 l-1 -968 6350 0 6350 0 0 1112 c0 611 -2 1109 -4 1107 -2 -2 -126 -302
-275 -667 -290 -710 -296 -723 -348 -795 -88 -120 -265 -181 -457 -157 -44 5
-80 11 -81 12 -2 2 7 61 18 131 19 122 21 128 41 122 84 -24 180 -13 229 26
25 19 99 160 112 212 5 18 -65 201 -264 690 -149 367 -271 669 -271 672 0 3
69 5 154 5 l154 0 60 -153 c32 -83 119 -306 193 -495 73 -188 136 -339 140
-335 3 5 91 227 195 495 l189 488 108 0 107 0 0 765 0 765 -6350 0 -6350 0 2
-907z m5195 -103 c146 -29 306 -105 406 -193 l47 -42 -76 -100 c-42 -55 -82
-109 -90 -120 -14 -19 -14 -19 -41 3 -75 60 -176 119 -248 144 -294 101 -557
25 -573 -166 -5 -66 14 -105 69 -146 55 -39 119 -62 334 -120 224 -61 306 -89
392 -134 183 -96 273 -238 273 -432 0 -155 -41 -270 -133 -370 -70 -78 -152
-128 -263 -164 -230 -74 -537 -57 -768 41 -83 35 -217 123 -265 173 l-34 35
73 101 c40 56 80 111 90 123 l17 21 48 -42 c103 -90 222 -154 350 -188 103
-27 290 -25 369 4 115 42 177 114 184 212 10 136 -77 200 -380 280 -340 90
-450 136 -548 227 -101 93 -140 186 -140 334 0 391 399 619 907 519z m6212 -8
c59 -23 131 -69 131 -84 0 -8 -59 -108 -101 -170 -3 -5 -26 3 -50 17 -60 34
-160 36 -210 2 -48 -31 -78 -97 -85 -189 l-7 -77 139 -3 139 -3 0 -125 0 -125
-137 -3 -138 -3 0 -539 0 -540 -145 0 -145 0 0 540 0 540 -110 0 -111 0 3 128
3 127 108 3 107 3 0 52 c1 81 25 198 54 260 47 99 146 180 253 207 65 16 241
6 302 -18z m-1098 -16 c69 -46 96 -135 64 -213 -33 -78 -98 -118 -181 -111
-120 10 -195 134 -149 245 21 50 42 72 90 95 54 25 122 19 176 -16z m-781
-306 l0 -180 135 0 135 0 0 -130 0 -130 -135 0 -136 0 3 -382 c3 -379 3 -383
26 -420 38 -61 107 -74 184 -35 l46 23 33 -109 c32 -107 33 -110 13 -124 -62
-48 -200 -79 -299 -67 -132 15 -215 69 -264 173 l-26 56 -3 443 -3 442 -109 0
-110 0 0 130 0 130 110 0 110 0 0 180 0 180 145 0 145 0 0 -180z m-2705 -165
c266 -57 434 -269 464 -585 37 -394 -128 -702 -419 -783 -200 -56 -396 -7
-538 133 l-62 62 0 -346 0 -346 -145 0 -145 0 0 920 0 920 145 0 145 0 0 -87
0 -86 58 55 c141 134 309 183 497 143z m1560 -10 c186 -49 337 -171 419 -340
57 -115 70 -181 71 -340 0 -119 -3 -151 -23 -215 -113 -361 -434 -544 -822
-468 -241 46 -439 246 -501 504 -29 123 -23 302 14 419 63 193 205 347 384
415 133 51 321 61 458 25z m1965 -675 l0 -670 -145 0 -145 0 0 663 c0 365 3
667 7 670 3 4 69 7 145 7 l138 0 0 -670z"/>
<path d="M6500 2231 c-76 -24 -141 -64 -189 -116 l-41 -45 0 -265 0 -266 50
-49 c60 -59 153 -106 238 -122 194 -36 370 89 423 302 20 82 16 231 -9 309
-68 210 -269 317 -472 252z"/>
<path d="M8077 2231 c-175 -58 -280 -242 -264 -464 13 -180 93 -309 232 -374
52 -24 72 -28 150 -28 77 0 99 4 151 28 154 71 244 245 231 447 -13 185 -95
319 -237 382 -66 29 -189 34 -263 9z"/>
<path d="M1325 2924 c-208 -16 -451 -57 -590 -99 -145 -44 -199 -139 -144
-252 40 -83 131 -112 244 -78 178 54 453 86 740 86 510 0 911 -83 1272 -263
134 -66 146 -70 196 -66 65 5 109 34 137 88 42 83 14 176 -70 230 -63 40 -257
131 -360 168 -345 125 -679 181 -1110 186 -146 2 -287 2 -315 0z"/>
<path d="M1196 2274 c-137 -18 -324 -59 -396 -87 -68 -27 -100 -70 -100 -135
0 -56 29 -104 74 -126 45 -21 70 -20 184 8 235 59 481 82 724 66 361 -24 641
-97 931 -243 145 -73 161 -79 204 -74 89 10 143 100 113 191 -14 44 -45 68
-170 134 -253 135 -568 229 -896 267 -161 19 -517 18 -668 -1z"/>
<path d="M1335 1684 c-218 -23 -454 -66 -502 -90 -66 -34 -80 -125 -25 -177
41 -39 67 -41 208 -13 560 108 1017 61 1424 -147 117 -60 140 -68 174 -64 53
7 87 43 93 98 7 72 -15 95 -163 171 -312 160 -552 216 -939 222 -126 2 -248 2
-270 0z"/>
</g>
</svg>
